<?xml version="1.0" encoding="utf-8"?>
<!-- Generator: Adobe Illustrator 24.0.2, SVG Export Plug-In . SVG Version: 6.00 Build 0)  -->
<svg version="1.1" id="Layer_1" xmlns="http://www.w3.org/2000/svg" xmlns:xlink="http://www.w3.org/1999/xlink" x="0px" y="0px"
	 viewBox="0 0 512 512" style="enable-background:new 0 0 512 512;" xml:space="preserve">
<style type="text/css">
	.st0{fill-rule:evenodd;clip-rule:evenodd;fill:#245A9B;}
</style>
<g>
	<g>
		<path class="st0" d="M191.0152,257.6556v241.7352c0,3.4777,2.8183,6.296,6.296,6.296h89.7698c3.4777,0,6.296-2.8183,6.296-6.296
			V253.7179h65.0808c3.271,0,5.9976-2.5053,6.2741-5.7661l6.2581-74.0204c0.3115-3.6742-2.5868-6.8273-6.2742-6.8273H293.377
			v-52.518c0-12.3081,9.9789-22.2856,22.2856-22.2856h50.1582c3.4777,0,6.2975-2.8197,6.2975-6.296V11.9827
			c0-3.4777-2.8197-6.296-6.2975-6.296h-84.7519c-49.7346,0-90.0536,40.3176-90.0536,90.0537v71.3637h-44.8856
			c-3.4777,0-6.296,2.8183-6.296,6.296v74.0218c0,3.4777,2.8183,6.296,6.296,6.296h44.8856V257.6556z"/>
	</g>
</g>
</svg>
